<?xml version="1.0" encoding="utf-8"?>
<!-- Generator: Adobe Illustrator 19.0.0, SVG Export Plug-In . SVG Version: 6.00 Build 0)  -->
<svg version="1.1" id="Layer_1" xmlns="http://www.w3.org/2000/svg" xmlns:xlink="http://www.w3.org/1999/xlink" x="0px" y="0px"
	 viewBox="0 0 220.5 154.4" style="enable-background:new 0 0 220.5 154.4;" xml:space="preserve">
<style type="text/css">
	.st0{fill:#231F20;}
	.st1{fill:#FF4840;}
</style>
<g>
	<g>
		<rect x="39.4" y="69.4" class="st0" width="9" height="9"/>
		<rect x="48.4" y="78.4" class="st0" width="9" height="9"/>
		<rect x="48.4" y="60.4" class="st0" width="9" height="9"/>
	</g>
	<g>
		<rect x="165.4" y="69.4" class="st0" width="9" height="9"/>
		<rect x="156.4" y="78.4" class="st0" width="9" height="9"/>
		<rect x="156.4" y="60.4" class="st0" width="9" height="9"/>
	</g>
	<g>
		<g>
			<rect x="93.4" y="87.4" class="st0" width="9" height="9"/>
			<rect x="102.4" y="78.4" class="st0" width="9" height="9"/>
			<rect x="111.4" y="87.4" class="st0" width="9" height="9"/>
			<rect x="102.4" y="96.4" class="st0" width="9" height="9"/>
		</g>
		<rect x="102.4" y="87.4" class="st1" width="9" height="9"/>
	</g>
	<g>
		<g>
			<rect x="93.4" y="51.4" class="st0" width="9" height="9"/>
			<rect x="102.4" y="42.4" class="st0" width="9" height="9"/>
			<rect x="111.4" y="51.4" class="st0" width="9" height="9"/>
			<rect x="102.4" y="60.4" class="st0" width="9" height="9"/>
		</g>
		<rect x="102.4" y="51.4" class="st1" width="9" height="9"/>
	</g>
	<g>
		<rect x="75.4" y="69.4" class="st0" width="9" height="9"/>
		<rect x="57.4" y="69.4" class="st1" width="9" height="9"/>
		<rect x="66.4" y="60.4" class="st1" width="9" height="9"/>
		<rect x="75.4" y="51.4" class="st1" width="9" height="9"/>
		<rect x="84.4" y="60.4" class="st1" width="9" height="9"/>
		<rect x="75.4" y="60.4" class="st1" width="9" height="9"/>
		<rect x="93.4" y="69.4" class="st1" width="9" height="9"/>
		<rect x="84.4" y="78.4" class="st1" width="9" height="9"/>
		<rect x="75.4" y="87.4" class="st1" width="9" height="9"/>
		<rect x="84.4" y="69.4" class="st1" width="9" height="9"/>
		<rect x="66.4" y="60.4" class="st1" width="9" height="9"/>
		<rect x="66.4" y="69.4" class="st1" width="9" height="9"/>
		<rect x="66.4" y="78.4" class="st1" width="9" height="9"/>
		<rect x="75.4" y="78.4" class="st1" width="9" height="9"/>
	</g>
	<g>
		<rect x="129.4" y="69.4" class="st0" width="9" height="9"/>
		<rect x="111.4" y="69.4" class="st1" width="9" height="9"/>
		<rect x="120.4" y="60.4" class="st1" width="9" height="9"/>
		<rect x="129.4" y="51.4" class="st1" width="9" height="9"/>
		<rect x="138.4" y="60.4" class="st1" width="9" height="9"/>
		<rect x="129.4" y="60.4" class="st1" width="9" height="9"/>
		<rect x="147.4" y="69.4" class="st1" width="9" height="9"/>
		<rect x="138.4" y="78.4" class="st1" width="9" height="9"/>
		<rect x="129.4" y="87.4" class="st1" width="9" height="9"/>
		<rect x="138.4" y="69.4" class="st1" width="9" height="9"/>
		<rect x="120.4" y="60.4" class="st1" width="9" height="9"/>
		<rect x="120.4" y="69.4" class="st1" width="9" height="9"/>
		<rect x="120.4" y="78.4" class="st1" width="9" height="9"/>
		<rect x="129.4" y="78.4" class="st1" width="9" height="9"/>
	</g>
</g>
</svg>
